<?xml version="1.0" encoding="UTF-8" standalone="no"?>
<svg
   xmlns:dc="http://purl.org/dc/elements/1.1/"
   xmlns:cc="http://creativecommons.org/ns#"
   xmlns:rdf="http://www.w3.org/1999/02/22-rdf-syntax-ns#"
   xmlns:svg="http://www.w3.org/2000/svg"
   xmlns="http://www.w3.org/2000/svg"
   xmlns:sodipodi="http://sodipodi.sourceforge.net/DTD/sodipodi-0.dtd"
   xmlns:inkscape="http://www.inkscape.org/namespaces/inkscape"
   id="emoji"
   viewBox="0 0 72 72"
   version="1.1"
   sodipodi:docname="ledger.svg"
   inkscape:version="1.0.2 (e86c870879, 2021-01-15, custom)">
  <metadata
     id="metadata36">
    <rdf:RDF>
      <cc:Work
         rdf:about="">
        <dc:format>image/svg+xml</dc:format>
        <dc:type
           rdf:resource="http://purl.org/dc/dcmitype/StillImage" />
      </cc:Work>
    </rdf:RDF>
  </metadata>
  <defs
     id="defs34" />
  <sodipodi:namedview
     pagecolor="#ffffff"
     bordercolor="#666666"
     borderopacity="1"
     objecttolerance="10"
     gridtolerance="10"
     guidetolerance="10"
     inkscape:pageopacity="0"
     inkscape:pageshadow="2"
     inkscape:window-width="1366"
     inkscape:window-height="705"
     id="namedview32"
     showgrid="false"
     inkscape:zoom="7.4722222"
     inkscape:cx="36"
     inkscape:cy="36"
     inkscape:window-x="-8"
     inkscape:window-y="-8"
     inkscape:window-maximized="1"
     inkscape:current-layer="color" />
  <g
     id="color"
     style="fill:#dc8add">
    <path
       fill="#FCEA2B"
       stroke="none"
       d="M60.1001,57.0799c0.5632,0,1.0198-0.4576,1.0198-1.0222V12.0344c0-0.5645-0.4566-1.0222-1.0198-1.0222 h-43.922c-0.5632,0-1.0198,0.4576-1.0198,1.0222V39.163l36.0608,17.917H60.1001z"
       id="path2"
       style="fill:#dc8add" />
    <path
       fill="#FCEA2B"
       stroke="none"
       d="M60.1214,56.0122c0.5514,0,0.9985-0.447,0.9985-0.9985v-43.003c0-0.5514-0.447-0.9985-0.9985-0.9985 h-43.003c-0.5514,0-0.9985,0.447-0.9985,0.9985v44.0015H60.1214z"
       id="path4"
       style="fill:#dc8add" />
    <path
       fill="#FCEA2B"
       stroke="none"
       stroke-linecap="round"
       stroke-linejoin="round"
       stroke-miterlimit="10"
       stroke-width="2"
       d="M16.1199,12.0107c0-0.5514,0.447-0.9985,0.9985-0.9985h43.003c0.5514,0,0.9985,0.447,0.9985,0.9985v43.003 c0,0.5514-0.447,0.9985-0.9985,0.9985"
       id="path6"
       style="fill:#dc8add" />
    <path
       fill="#F1B31C"
       stroke="none"
       stroke-linecap="round"
       stroke-linejoin="round"
       stroke-miterlimit="10"
       stroke-width="2"
       d="M55.1336,61h-43.003c-0.5514,0-0.9985-0.447-0.9985-0.9985v-5.8828V25.6668v-3.2316v-5.4367c0-0.5514,0.447-0.9985,0.9985-0.9985 h43.003c0.5514,0,0.9985,0.447,0.9985,0.9985v43.003C56.1321,60.553,55.685,61,55.1336,61z"
       id="path8"
       style="fill:#613583" />
  </g>
  <g
     id="hair" />
  <g
     id="skin" />
  <g
     id="skin-shadow" />
  <g
     id="line">
    <path
       fill="none"
       stroke="#000000"
       stroke-linecap="round"
       stroke-linejoin="round"
       stroke-miterlimit="10"
       stroke-width="2"
       d="M16.1199,12.0107c0-0.5514,0.447-0.9985,0.9985-0.9985h43.003c0.5514,0,0.9985,0.447,0.9985,0.9985v43.003 c0,0.5514-0.447,0.9985-0.9985,0.9985"
       id="path14" />
    <path
       fill="none"
       stroke="#000000"
       stroke-linecap="round"
       stroke-linejoin="round"
       stroke-miterlimit="10"
       stroke-width="2"
       d="M55.1336,61h-43.003c-0.5514,0-0.9985-0.447-0.9985-0.9985v-5.8828V25.6668v-3.2316v-5.4367c0-0.5514,0.447-0.9985,0.9985-0.9985 h43.003c0.5514,0,0.9985,0.447,0.9985,0.9985v43.003C56.1321,60.553,55.685,61,55.1336,61z"
       id="path16" />
    <line
       x1="7"
       x2="15.7116"
       y1="23.4114"
       y2="23.4114"
       fill="none"
       stroke="#000000"
       stroke-linecap="round"
       stroke-linejoin="round"
       stroke-miterlimit="10"
       stroke-width="2"
       id="line18" />
    <line
       x1="7"
       x2="15.7116"
       y1="29.4469"
       y2="29.4469"
       fill="none"
       stroke="#000000"
       stroke-linecap="round"
       stroke-linejoin="round"
       stroke-miterlimit="10"
       stroke-width="2"
       id="line20" />
    <line
       x1="7"
       x2="15.7116"
       y1="35.4823"
       y2="35.4823"
       fill="none"
       stroke="#000000"
       stroke-linecap="round"
       stroke-linejoin="round"
       stroke-miterlimit="10"
       stroke-width="2"
       id="line22" />
    <line
       x1="15.7116"
       x2="7"
       y1="41.5177"
       y2="41.5177"
       fill="none"
       stroke="#000000"
       stroke-linecap="round"
       stroke-linejoin="round"
       stroke-miterlimit="10"
       stroke-width="2"
       id="line24" />
    <line
       x1="7"
       x2="15.7116"
       y1="47.5532"
       y2="47.5532"
       fill="none"
       stroke="#000000"
       stroke-linecap="round"
       stroke-linejoin="round"
       stroke-miterlimit="10"
       stroke-width="2"
       id="line26" />
    <line
       x1="7"
       x2="15.7116"
       y1="53.5886"
       y2="53.5886"
       fill="none"
       stroke="#000000"
       stroke-linecap="round"
       stroke-linejoin="round"
       stroke-miterlimit="10"
       stroke-width="2"
       id="line28" />
  </g>
</svg>
